# xmcd
#
# Track frame offsets:
#	150
#	20667
#	37832
#	68647
#	94230
#	116862
#	139625
#	157515
#	180060
#	192750
#
# Disc length: 2859 seconds
#
# Revision: 1
# Processed by: cddbd v1.5.1PL2 Copyright (c) Steve Scherf et al.
# Submitted via: audiograbber 1.83.01
#
DISCID=700b290a
DTITLE=Joe Coronado And The Texas Beat - Final Warning
DYEAR=1996
DGENRE=Blues
TTITLE0=She Is Fine As Wine
TTITLE1=Bet You Do It Real Good
TTITLE2=Sunrise Sorrow
TTITLE3=You Got To Walk On Baby
TTITLE4=What This Woman Is Doing To Me
TTITLE5=Final Warning
TTITLE6=Know Who Your Friends Are
TTITLE7=Let Me Tell You About My Baby
TTITLE8=The Wasp
TTITLE9=You Know and I Know
EXTD=
EXTT0=
EXTT1=
EXTT2=
EXTT3=
EXTT4=
EXTT5=
EXTT6=
EXTT7=
EXTT8=
EXTT9=
PLAYORDER=
